<svg width="200" height="32" viewBox="0 0 200 32" fill="none" xmlns="http://www.w3.org/2000/svg">
<path d="M196.277 11.6787C197.376 11.6787 198.264 12.1022 198.938 12.9491C199.619 13.796 199.959 15.0376 199.959 16.6739C199.959 17.7686 199.799 18.6904 199.479 19.4394C199.159 20.1826 198.717 20.7443 198.153 21.1246C197.589 21.5048 196.94 21.695 196.207 21.695C195.736 21.695 195.332 21.6374 194.994 21.5221C194.657 21.4011 194.369 21.2485 194.131 21.0641C193.892 20.874 193.686 20.6723 193.511 20.4591H193.371C193.418 20.6896 193.453 20.9258 193.476 21.1678C193.499 21.4098 193.511 21.646 193.511 21.8765V25.7741H190.85V11.8602H193.014L193.389 13.1133H193.511C193.686 12.8541 193.898 12.615 194.148 12.396C194.398 12.1771 194.698 12.0042 195.047 11.8775C195.402 11.745 195.812 11.6787 196.277 11.6787ZM195.422 13.7874C194.957 13.7874 194.587 13.8825 194.314 14.0726C194.04 14.2627 193.84 14.5479 193.712 14.9282C193.59 15.3084 193.523 15.7895 193.511 16.3714V16.6566C193.511 17.2788 193.569 17.806 193.686 18.2381C193.808 18.6702 194.008 18.9986 194.288 19.2233C194.573 19.448 194.962 19.5604 195.457 19.5604C195.864 19.5604 196.199 19.448 196.46 19.2233C196.722 18.9986 196.917 18.6702 197.045 18.2381C197.179 17.8002 197.246 17.2673 197.246 16.6393C197.246 15.6944 197.097 14.9829 196.801 14.5047C196.504 14.0265 196.044 13.7874 195.422 13.7874Z" fill="black"/>
<path d="M188.651 16.6739C188.651 17.4805 188.54 18.1949 188.319 18.8171C188.104 19.4394 187.787 19.9665 187.368 20.3986C186.955 20.825 186.455 21.1476 185.867 21.3666C185.286 21.5855 184.628 21.695 183.896 21.695C183.209 21.695 182.578 21.5855 182.002 21.3666C181.432 21.1476 180.935 20.825 180.51 20.3986C180.091 19.9665 179.765 19.4394 179.533 18.8171C179.306 18.1949 179.192 17.4805 179.192 16.6739C179.192 15.6023 179.384 14.6948 179.768 13.9516C180.152 13.2084 180.699 12.6438 181.409 12.2577C182.118 11.8717 182.965 11.6787 183.948 11.6787C184.861 11.6787 185.67 11.8717 186.374 12.2577C187.083 12.6438 187.639 13.2084 188.04 13.9516C188.447 14.6948 188.651 15.6023 188.651 16.6739ZM181.906 16.6739C181.906 17.3076 181.976 17.8406 182.115 18.2727C182.255 18.7048 182.473 19.0303 182.77 19.2492C183.067 19.4682 183.453 19.5776 183.93 19.5776C184.402 19.5776 184.783 19.4682 185.073 19.2492C185.37 19.0303 185.585 18.7048 185.719 18.2727C185.859 17.8406 185.929 17.3076 185.929 16.6739C185.929 16.0344 185.859 15.5043 185.719 15.0837C185.585 14.6574 185.37 14.3376 185.073 14.1244C184.777 13.9113 184.39 13.8047 183.913 13.8047C183.209 13.8047 182.697 14.0438 182.377 14.522C182.063 15.0002 181.906 15.7175 181.906 16.6739Z" fill="black"/>
<path d="M177.194 14.3924C177.194 14.9109 177.029 15.3545 176.697 15.7232C176.371 16.0862 175.888 16.3196 175.249 16.4233V16.4924C175.923 16.5731 176.467 16.8064 176.88 17.1924C177.293 17.5727 177.5 18.0537 177.5 18.6356C177.5 19.1887 177.354 19.6842 177.063 20.1221C176.773 20.5542 176.31 20.897 175.676 21.1505C175.042 21.3983 174.213 21.5221 173.189 21.5221H168.547V11.8602H173.189C173.951 11.8602 174.635 11.9409 175.24 12.1022C175.845 12.2577 176.322 12.5199 176.671 12.8886C177.02 13.2574 177.194 13.7586 177.194 14.3924ZM174.742 18.4974C174.742 18.1171 174.591 17.8435 174.289 17.6764C173.992 17.5035 173.55 17.4171 172.962 17.4171H171.209V19.6986H173.015C173.515 19.6986 173.928 19.6064 174.254 19.4221C174.58 19.2377 174.742 18.9295 174.742 18.4974ZM174.498 14.5998C174.498 14.3002 174.379 14.0784 174.14 13.9343C173.902 13.7903 173.55 13.7183 173.085 13.7183H171.209V15.6282H172.779C173.343 15.6282 173.771 15.5475 174.062 15.3862C174.353 15.2249 174.498 14.9627 174.498 14.5998Z" fill="black"/>
<path d="M166.348 16.6739C166.348 17.4805 166.238 18.1949 166.017 18.8171C165.802 19.4394 165.485 19.9665 165.066 20.3986C164.653 20.825 164.153 21.1476 163.565 21.3666C162.983 21.5855 162.326 21.695 161.593 21.695C160.907 21.695 160.275 21.5855 159.7 21.3666C159.13 21.1476 158.632 20.825 158.208 20.3986C157.789 19.9665 157.463 19.4394 157.23 18.8171C157.003 18.1949 156.89 17.4805 156.89 16.6739C156.89 15.6023 157.082 14.6948 157.466 13.9516C157.85 13.2084 158.397 12.6438 159.106 12.2577C159.816 11.8717 160.662 11.6787 161.645 11.6787C162.559 11.6787 163.367 11.8717 164.071 12.2577C164.781 12.6438 165.336 13.2084 165.738 13.9516C166.145 14.6948 166.348 15.6023 166.348 16.6739ZM159.604 16.6739C159.604 17.3076 159.673 17.8406 159.813 18.2727C159.953 18.7048 160.171 19.0303 160.467 19.2492C160.764 19.4682 161.151 19.5776 161.628 19.5776C162.099 19.5776 162.48 19.4682 162.771 19.2492C163.068 19.0303 163.283 18.7048 163.417 18.2727C163.556 17.8406 163.626 17.3076 163.626 16.6739C163.626 16.0344 163.556 15.5043 163.417 15.0837C163.283 14.6574 163.068 14.3376 162.771 14.1244C162.474 13.9113 162.087 13.8047 161.61 13.8047C160.907 13.8047 160.395 14.0438 160.075 14.522C159.761 15.0002 159.604 15.7175 159.604 16.6739Z" fill="black"/>
<path d="M155.668 11.8602V13.8393H151.594V21.5221H148.932V11.8602H155.668Z" fill="black"/>
<path d="M146.733 16.6739C146.733 17.4805 146.623 18.1949 146.402 18.8171C146.187 19.4394 145.87 19.9665 145.451 20.3986C145.038 20.825 144.538 21.1476 143.95 21.3666C143.368 21.5855 142.711 21.695 141.978 21.695C141.292 21.695 140.66 21.5855 140.085 21.3666C139.515 21.1476 139.017 20.825 138.593 20.3986C138.174 19.9665 137.848 19.4394 137.615 18.8171C137.388 18.1949 137.275 17.4805 137.275 16.6739C137.275 15.6023 137.467 14.6948 137.851 13.9516C138.235 13.2084 138.782 12.6438 139.491 12.2577C140.201 11.8717 141.047 11.6787 142.03 11.6787C142.944 11.6787 143.752 11.8717 144.456 12.2577C145.166 12.6438 145.721 13.2084 146.123 13.9516C146.53 14.6948 146.733 15.6023 146.733 16.6739ZM139.989 16.6739C139.989 17.3076 140.058 17.8406 140.198 18.2727C140.338 18.7048 140.556 19.0303 140.852 19.2492C141.149 19.4682 141.536 19.5776 142.013 19.5776C142.484 19.5776 142.865 19.4682 143.156 19.2492C143.453 19.0303 143.668 18.7048 143.802 18.2727C143.941 17.8406 144.011 17.3076 144.011 16.6739C144.011 16.0344 143.941 15.5043 143.802 15.0837C143.668 14.6574 143.453 14.3376 143.156 14.1244C142.859 13.9113 142.472 13.8047 141.995 13.8047C141.292 13.8047 140.78 14.0438 140.46 14.522C140.146 15.0002 139.989 15.7175 139.989 16.6739Z" fill="black"/>
<path d="M134.404 8.88731V19.2924H136.106V25.2037H133.497V21.5221H125.504V25.2037H122.895V19.2924H123.881C124.213 18.6356 124.533 17.9414 124.841 17.2097C125.149 16.478 125.437 15.6916 125.705 14.8504C125.972 14.0092 126.214 13.096 126.429 12.1108C126.644 11.1256 126.825 10.0511 126.97 8.88731H134.404ZM131.708 11.117H129.117C129.029 11.7277 128.91 12.3787 128.759 13.0701C128.608 13.7615 128.427 14.4673 128.218 15.1874C128.014 15.9018 127.784 16.6076 127.529 17.3048C127.278 18.0019 127.011 18.6645 126.726 19.2924H131.708V11.117Z" fill="black"/>
<path d="M117.363 16.6739C117.363 17.4805 117.253 18.1949 117.032 18.8171C116.816 19.4394 116.499 19.9665 116.081 20.3986C115.668 20.825 115.167 21.1476 114.58 21.3666C113.998 21.5855 113.341 21.695 112.608 21.695C111.921 21.695 111.29 21.5855 110.714 21.3666C110.144 21.1476 109.647 20.825 109.222 20.3986C108.804 19.9665 108.478 19.4394 108.245 18.8171C108.018 18.1949 107.905 17.4805 107.905 16.6739C107.905 15.6023 108.097 14.6948 108.481 13.9516C108.865 13.2084 109.411 12.6438 110.121 12.2577C110.831 11.8717 111.677 11.6787 112.66 11.6787C113.573 11.6787 114.382 11.8717 115.086 12.2577C115.796 12.6438 116.351 13.2084 116.752 13.9516C117.16 14.6948 117.363 15.6023 117.363 16.6739ZM110.618 16.6739C110.618 17.3076 110.688 17.8406 110.828 18.2727C110.967 18.7048 111.186 19.0303 111.482 19.2492C111.779 19.4682 112.166 19.5776 112.643 19.5776C113.114 19.5776 113.495 19.4682 113.786 19.2492C114.082 19.0303 114.298 18.7048 114.431 18.2727C114.571 17.8406 114.641 17.3076 114.641 16.6739C114.641 16.0344 114.571 15.5043 114.431 15.0837C114.298 14.6574 114.082 14.3376 113.786 14.1244C113.489 13.9113 113.102 13.8047 112.625 13.8047C111.921 13.8047 111.41 14.0438 111.09 14.522C110.775 15.0002 110.618 15.7175 110.618 16.6739Z" fill="black"/>
<path d="M106.674 13.8393H103.481V21.5221H100.82V13.8393H97.6174V11.8602H106.674V13.8393Z" fill="black"/>
<path d="M93.368 21.695C92.4024 21.695 91.5793 21.5221 90.8987 21.1764C90.2181 20.825 89.7004 20.2834 89.3456 19.5517C88.9907 18.82 88.8133 17.8838 88.8133 16.743C88.8133 15.5619 89.014 14.5998 89.4154 13.8565C89.8226 13.1076 90.3839 12.5573 91.0994 12.2059C91.8207 11.8544 92.6554 11.6787 93.6036 11.6787C94.2784 11.6787 94.8601 11.745 95.3487 11.8775C95.8432 12.0042 96.2736 12.1569 96.6401 12.3355L95.8548 14.3751C95.436 14.208 95.0462 14.0726 94.6856 13.9689C94.3249 13.8594 93.9643 13.8047 93.6036 13.8047C93.1383 13.8047 92.7514 13.9142 92.4431 14.1331C92.1348 14.3463 91.905 14.6689 91.7538 15.101C91.6026 15.5331 91.5269 16.0747 91.5269 16.7257C91.5269 17.3653 91.6084 17.8953 91.7713 18.3159C91.9341 18.7365 92.1697 19.0505 92.478 19.2579C92.7863 19.4595 93.1615 19.5604 93.6036 19.5604C94.1562 19.5604 94.6478 19.4883 95.0782 19.3443C95.5087 19.1945 95.9275 18.9871 96.3347 18.7221V20.9777C95.9275 21.2312 95.5 21.4127 95.0521 21.5221C94.61 21.6374 94.0486 21.695 93.368 21.695Z" fill="black"/>
<path d="M87.2078 16.6739C87.2078 17.4805 87.0973 18.1949 86.8762 18.8171C86.661 19.4394 86.344 19.9665 85.9251 20.3986C85.5121 20.825 85.0119 21.1476 84.4244 21.3666C83.8426 21.5855 83.1853 21.695 82.4524 21.695C81.766 21.695 81.1348 21.5855 80.5589 21.3666C79.9889 21.1476 79.4915 20.825 79.0669 20.3986C78.648 19.9665 78.3223 19.4394 78.0896 18.8171C77.8627 18.1949 77.7493 17.4805 77.7493 16.6739C77.7493 15.6023 77.9413 14.6948 78.3252 13.9516C78.7091 13.2084 79.2559 12.6438 79.9656 12.2577C80.6753 11.8717 81.5217 11.6787 82.5047 11.6787C83.418 11.6787 84.2266 11.8717 84.9304 12.2577C85.6401 12.6438 86.1956 13.2084 86.597 13.9516C87.0042 14.6948 87.2078 15.6023 87.2078 16.6739ZM80.463 16.6739C80.463 17.3076 80.5328 17.8406 80.6724 18.2727C80.812 18.7048 81.0301 19.0303 81.3268 19.2492C81.6235 19.4682 82.0103 19.5776 82.4873 19.5776C82.9585 19.5776 83.3395 19.4682 83.6303 19.2492C83.927 19.0303 84.1422 18.7048 84.276 18.2727C84.4156 17.8406 84.4854 17.3076 84.4854 16.6739C84.4854 16.0344 84.4156 15.5043 84.276 15.0837C84.1422 14.6574 83.927 14.3376 83.6303 14.1244C83.3337 13.9113 82.9468 13.8047 82.4698 13.8047C81.766 13.8047 81.2541 14.0438 80.9341 14.522C80.62 15.0002 80.463 15.7175 80.463 16.6739Z" fill="black"/>
<path d="M72.4616 11.6787C73.5611 11.6787 74.4482 12.1022 75.1229 12.9491C75.8035 13.796 76.1438 15.0376 76.1438 16.6739C76.1438 17.7686 75.9838 18.6904 75.6639 19.4394C75.344 20.1826 74.9019 20.7443 74.3376 21.1246C73.7734 21.5048 73.1248 21.695 72.3918 21.695C71.9207 21.695 71.5164 21.6374 71.179 21.5221C70.8416 21.4011 70.5537 21.2485 70.3152 21.0641C70.0767 20.874 69.8702 20.6723 69.6956 20.4591H69.556C69.6026 20.6896 69.6375 20.9258 69.6607 21.1678C69.684 21.4098 69.6956 21.646 69.6956 21.8765V25.7741H67.0344V11.8602H69.1983L69.5735 13.1133H69.6956C69.8702 12.8541 70.0825 12.615 70.3326 12.396C70.5827 12.1771 70.8823 12.0042 71.2313 11.8775C71.5862 11.745 71.9963 11.6787 72.4616 11.6787ZM71.6065 13.7874C71.1412 13.7874 70.7718 13.8825 70.4984 14.0726C70.225 14.2627 70.0243 14.5479 69.8963 14.9282C69.7742 15.3084 69.7073 15.7895 69.6956 16.3714V16.6566C69.6956 17.2788 69.7538 17.806 69.8702 18.2381C69.9923 18.6702 70.193 18.9986 70.4722 19.2233C70.7572 19.448 71.147 19.5604 71.6414 19.5604C72.0486 19.5604 72.3831 19.448 72.6449 19.2233C72.9066 18.9986 73.1015 18.6702 73.2295 18.2381C73.3633 17.8002 73.4302 17.2673 73.4302 16.6393C73.4302 15.6944 73.2818 14.9829 72.9852 14.5047C72.6885 14.0265 72.229 13.7874 71.6065 13.7874Z" fill="black"/>
<path d="M53.9286 21.5221V8.88731H64.024V21.5221H61.3278V11.117H56.6335V21.5221H53.9286Z" fill="black"/>
<path d="M33.028 0.00618084C14.0761 0.441547 5.13845 17.5316 1.73422 26.5508C1.33839 27.5995 2.70594 28.2696 3.41183 27.3988C8.11218 21.6006 17.226 12.1811 27.946 10.4602C20.2712 13.255 11.5821 21.6455 7.2836 27.0441C6.64353 27.848 7.39017 28.5862 8.21505 27.9735C11.9102 25.2285 16.4744 21.9657 27.2433 21.2947C40.9796 20.7732 37.6621 5.33549 46.0329 5.03643C41.3027 1.74434 38.6254 -0.121818 33.028 0.00618084ZM33.7775 6.48629C32.5608 6.48629 31.5734 5.50297 31.5734 4.29116C31.5734 3.07936 32.5608 2.09604 33.7775 2.09604C34.9943 2.09604 35.9817 3.07936 35.9817 4.29116C35.9817 5.50297 34.9943 6.48629 33.7775 6.48629Z" fill="#6C63E5"/>
</svg>
