<svg width="46" height="29" viewBox="0 0 46 29" fill="none" xmlns="http://www.w3.org/2000/svg">
<path d="M32.028 0.00618084C13.0761 0.441547 4.13845 17.5316 0.734223 26.5508C0.338389 27.5995 1.70594 28.2696 2.41183 27.3988C7.11218 21.6006 16.226 12.1811 26.946 10.4602C19.2712 13.255 10.5821 21.6455 6.2836 27.0441C5.64353 27.848 6.39017 28.5862 7.21505 27.9735C10.9102 25.2285 15.4744 21.9657 26.2433 21.2947C39.9796 20.7732 36.6621 5.33549 45.0329 5.03643C40.3027 1.74434 37.6254 -0.121818 32.028 0.00618084ZM32.7775 6.48629C31.5608 6.48629 30.5734 5.50297 30.5734 4.29116C30.5734 3.07936 31.5608 2.09604 32.7775 2.09604C33.9943 2.09604 34.9817 3.07936 34.9817 4.29116C34.9817 5.50297 33.9943 6.48629 32.7775 6.48629Z" fill="#6C63E5"/>
</svg>
