<svg width="19" height="20" viewBox="0 0 19 20" fill="none" xmlns="http://www.w3.org/2000/svg">
<path d="M17.4167 10V13.9583C17.4167 16.3333 15.8334 17.9167 13.4584 17.9167H5.54171C3.16671 17.9167 1.58337 16.3333 1.58337 13.9583V10C1.58337 7.84667 2.88171 6.3425 4.90046 6.08917C5.10629 6.0575 5.32004 6.04167 5.54171 6.04167H13.4584C13.6642 6.04167 13.8621 6.04957 14.0521 6.08124C16.0946 6.31874 17.4167 7.83083 17.4167 10Z" stroke="#34434B" stroke-width="1.5" stroke-linecap="round" stroke-linejoin="round"/>
<path d="M14.0532 6.08125C13.8632 6.04958 13.6652 6.04167 13.4594 6.04167H5.54274C5.32107 6.04167 5.10732 6.05751 4.90149 6.08917C5.01232 5.86751 5.17066 5.66167 5.36066 5.47167L7.93357 2.89083C9.01816 1.81417 10.7757 1.81417 11.8602 2.89083L13.2457 4.2921C13.7523 4.79085 14.0215 5.42416 14.0532 6.08125Z" stroke="#34434B" stroke-width="1.5" stroke-linecap="round" stroke-linejoin="round"/>
<path d="M17.4167 10.3958H15.0417C14.1709 10.3958 13.4584 11.1083 13.4584 11.9792C13.4584 12.85 14.1709 13.5625 15.0417 13.5625H17.4167" stroke="#34434B" stroke-width="1.5" stroke-linecap="round" stroke-linejoin="round"/>
</svg>
