<svg width="19" height="20" viewBox="0 0 19 20" fill="none" xmlns="http://www.w3.org/2000/svg">
<path d="M9.51596 2.80368C6.89555 2.80368 4.76596 4.93326 4.76596 7.55368V9.8416C4.76596 10.3245 4.56013 11.0608 4.31471 11.4724L3.4043 12.9845C2.84221 13.9187 3.23013 14.9558 4.2593 15.3041C7.67138 16.4441 11.3526 16.4441 14.7647 15.3041C15.7226 14.9874 16.1422 13.8553 15.6197 12.9845L14.7093 11.4724C14.4718 11.0608 14.266 10.3245 14.266 9.8416V7.55368C14.266 4.94118 12.1285 2.80368 9.51596 2.80368Z" stroke="white" stroke-width="1.5" stroke-miterlimit="10" stroke-linecap="round"/>
<path d="M10.9803 3.03329C10.7349 2.96204 10.4816 2.90662 10.2203 2.87495C9.46031 2.77995 8.73198 2.83537 8.05115 3.03329C8.28073 2.44745 8.85073 2.03579 9.51573 2.03579C10.1807 2.03579 10.7507 2.44745 10.9803 3.03329Z" stroke="white" stroke-width="1.5" stroke-miterlimit="10" stroke-linecap="round" stroke-linejoin="round"/>
<path d="M11.8909 15.5892C11.8909 16.8955 10.8221 17.9642 9.51587 17.9642C8.8667 17.9642 8.26504 17.695 7.83754 17.2675C7.41004 16.84 7.14087 16.2384 7.14087 15.5892" stroke="white" stroke-width="1.5" stroke-miterlimit="10"/>
</svg>
