<svg width="22" height="22" viewBox="0 0 22 22" fill="none" xmlns="http://www.w3.org/2000/svg">
<path d="M20.1392 16.8025C20.1392 17.1325 20.0658 17.4717 19.91 17.8017C19.7542 18.1317 19.5525 18.4434 19.2867 18.7367C18.8375 19.2317 18.3425 19.5892 17.7833 19.8184C17.2333 20.0475 16.6375 20.1667 15.9958 20.1667C15.0608 20.1667 14.0617 19.9467 13.0075 19.4975C11.9533 19.0484 10.8992 18.4434 9.85418 17.6825C8.80001 16.9125 7.80084 16.06 6.84751 15.1159C5.90334 14.1625 5.05084 13.1634 4.29001 12.1184C3.53834 11.0734 2.93334 10.0284 2.49334 8.99254C2.05334 7.94754 1.83334 6.94837 1.83334 5.99504C1.83334 5.37171 1.94334 4.77587 2.16334 4.22587C2.38334 3.66671 2.73168 3.15337 3.21751 2.69504C3.80418 2.11754 4.44584 1.83337 5.12418 1.83337C5.38084 1.83337 5.63751 1.88837 5.86668 1.99837C6.10501 2.10837 6.31584 2.27337 6.48084 2.51171L8.60751 5.50921C8.77251 5.73837 8.89168 5.94921 8.97418 6.15087C9.05668 6.34337 9.10251 6.53587 9.10251 6.71004C9.10251 6.93004 9.03834 7.15004 8.91001 7.36087C8.79084 7.57171 8.61668 7.79171 8.39668 8.01171L7.70001 8.73587C7.59918 8.83671 7.55334 8.95587 7.55334 9.10254C7.55334 9.17587 7.56251 9.24004 7.58084 9.31337C7.60834 9.38671 7.63584 9.44171 7.65418 9.49671C7.81918 9.79921 8.10334 10.1934 8.50668 10.67C8.91918 11.1467 9.35918 11.6325 9.83584 12.1184C10.3308 12.6042 10.8075 13.0534 11.2933 13.4659C11.77 13.8692 12.1642 14.1442 12.4758 14.3092C12.5217 14.3275 12.5767 14.355 12.6408 14.3825C12.7142 14.41 12.7875 14.4192 12.87 14.4192C13.0258 14.4192 13.145 14.3642 13.2458 14.2634L13.9425 13.5759C14.1717 13.3467 14.3917 13.1725 14.6025 13.0625C14.8133 12.9342 15.0242 12.87 15.2533 12.87C15.4275 12.87 15.6108 12.9067 15.8125 12.9892C16.0142 13.0717 16.225 13.1909 16.4542 13.3467L19.4883 15.5009C19.7267 15.6659 19.8917 15.8584 19.9925 16.0875C20.0842 16.3167 20.1392 16.5459 20.1392 16.8025Z" stroke="#88969D" stroke-width="1.25" stroke-miterlimit="10"/>
<path d="M16.9583 8.24996C16.9583 7.69996 16.5275 6.85663 15.8858 6.16913C15.2992 5.53663 14.52 5.04163 13.75 5.04163" stroke="#88969D" stroke-width="1.25" stroke-linecap="round" stroke-linejoin="round"/>
<path d="M20.1667 8.25004C20.1667 4.70254 17.2975 1.83337 13.75 1.83337" stroke="#88969D" stroke-width="1.25" stroke-linecap="round" stroke-linejoin="round"/>
</svg>
