<svg width="147" height="18" viewBox="0 0 147 18" fill="none" xmlns="http://www.w3.org/2000/svg">
<path d="M143.277 3.67872C144.376 3.67872 145.264 4.10218 145.938 4.94911C146.619 5.79605 146.959 7.03763 146.959 8.67388C146.959 9.76855 146.799 10.6904 146.479 11.4394C146.159 12.1826 145.717 12.7443 145.153 13.1246C144.589 13.5048 143.94 13.695 143.207 13.695C142.736 13.695 142.332 13.6374 141.994 13.5221C141.657 13.4011 141.369 13.2485 141.131 13.0641C140.892 12.874 140.686 12.6723 140.511 12.4591H140.371C140.418 12.6896 140.453 12.9258 140.476 13.1678C140.499 13.4098 140.511 13.646 140.511 13.8765V17.7741H137.85V3.8602H140.014L140.389 5.11332H140.511C140.686 4.85405 140.898 4.61495 141.148 4.39602C141.398 4.17708 141.698 4.00424 142.047 3.87749C142.402 3.74498 142.812 3.67872 143.277 3.67872ZM142.422 5.7874C141.957 5.7874 141.587 5.88247 141.314 6.07259C141.04 6.26272 140.84 6.54791 140.712 6.92817C140.59 7.30842 140.523 7.7895 140.511 8.3714V8.6566C140.511 9.27883 140.569 9.806 140.686 10.2381C140.808 10.6702 141.008 10.9986 141.288 11.2233C141.573 11.448 141.962 11.5604 142.457 11.5604C142.864 11.5604 143.199 11.448 143.46 11.2233C143.722 10.9986 143.917 10.6702 144.045 10.2381C144.179 9.80024 144.246 9.26731 144.246 8.63931C144.246 7.69444 144.097 6.9829 143.801 6.5047C143.504 6.0265 143.044 5.7874 142.422 5.7874Z" fill="black"/>
<path d="M135.651 8.67388C135.651 9.48048 135.54 10.1949 135.319 10.8171C135.104 11.4394 134.787 11.9665 134.368 12.3986C133.955 12.825 133.455 13.1476 132.867 13.3666C132.286 13.5855 131.628 13.695 130.896 13.695C130.209 13.695 129.578 13.5855 129.002 13.3666C128.432 13.1476 127.935 12.825 127.51 12.3986C127.091 11.9665 126.765 11.4394 126.533 10.8171C126.306 10.1949 126.192 9.48048 126.192 8.67388C126.192 7.60225 126.384 6.69483 126.768 5.9516C127.152 5.20838 127.699 4.64376 128.409 4.25774C129.118 3.87173 129.965 3.67872 130.948 3.67872C131.861 3.67872 132.67 3.87173 133.374 4.25774C134.083 4.64376 134.639 5.20838 135.04 5.9516C135.447 6.69483 135.651 7.60225 135.651 8.67388ZM128.906 8.67388C128.906 9.30764 128.976 9.84057 129.115 10.2727C129.255 10.7048 129.473 11.0303 129.77 11.2492C130.067 11.4682 130.453 11.5776 130.93 11.5776C131.402 11.5776 131.783 11.4682 132.073 11.2492C132.37 11.0303 132.585 10.7048 132.719 10.2727C132.859 9.84057 132.929 9.30764 132.929 8.67388C132.929 8.03436 132.859 7.50431 132.719 7.08372C132.585 6.65738 132.37 6.33762 132.073 6.12445C131.777 5.91127 131.39 5.80469 130.913 5.80469C130.209 5.80469 129.697 6.04379 129.377 6.52199C129.063 7.00018 128.906 7.71748 128.906 8.67388Z" fill="black"/>
<path d="M124.194 6.39235C124.194 6.91088 124.029 7.35451 123.697 7.72324C123.371 8.08621 122.888 8.31955 122.249 8.42326V8.49239C122.923 8.57305 123.467 8.80639 123.88 9.19241C124.293 9.57266 124.5 10.0537 124.5 10.6356C124.5 11.1887 124.354 11.6842 124.063 12.1221C123.773 12.5542 123.31 12.897 122.676 13.1505C122.042 13.3983 121.213 13.5221 120.189 13.5221H115.547V3.8602H120.189C120.951 3.8602 121.635 3.94086 122.24 4.10218C122.845 4.25774 123.322 4.51989 123.671 4.88862C124.02 5.25735 124.194 5.7586 124.194 6.39235ZM121.742 10.4974C121.742 10.1171 121.591 9.84345 121.289 9.67637C120.992 9.50353 120.55 9.4171 119.962 9.4171H118.209V11.6986H120.015C120.515 11.6986 120.928 11.6064 121.254 11.4221C121.58 11.2377 121.742 10.9295 121.742 10.4974ZM121.498 6.59976C121.498 6.30017 121.379 6.07836 121.14 5.93432C120.902 5.79028 120.55 5.71827 120.085 5.71827H118.209V7.62818H119.779C120.343 7.62818 120.771 7.54752 121.062 7.3862C121.353 7.22488 121.498 6.96273 121.498 6.59976Z" fill="black"/>
<path d="M113.348 8.67388C113.348 9.48048 113.238 10.1949 113.017 10.8171C112.802 11.4394 112.485 11.9665 112.066 12.3986C111.653 12.825 111.153 13.1476 110.565 13.3666C109.983 13.5855 109.326 13.695 108.593 13.695C107.907 13.695 107.275 13.5855 106.7 13.3666C106.13 13.1476 105.632 12.825 105.208 12.3986C104.789 11.9665 104.463 11.4394 104.23 10.8171C104.003 10.1949 103.89 9.48048 103.89 8.67388C103.89 7.60225 104.082 6.69483 104.466 5.9516C104.85 5.20838 105.397 4.64376 106.106 4.25774C106.816 3.87173 107.662 3.67872 108.645 3.67872C109.559 3.67872 110.367 3.87173 111.071 4.25774C111.781 4.64376 112.336 5.20838 112.738 5.9516C113.145 6.69483 113.348 7.60225 113.348 8.67388ZM106.604 8.67388C106.604 9.30764 106.673 9.84057 106.813 10.2727C106.953 10.7048 107.171 11.0303 107.467 11.2492C107.764 11.4682 108.151 11.5776 108.628 11.5776C109.099 11.5776 109.48 11.4682 109.771 11.2492C110.068 11.0303 110.283 10.7048 110.417 10.2727C110.556 9.84057 110.626 9.30764 110.626 8.67388C110.626 8.03436 110.556 7.50431 110.417 7.08372C110.283 6.65738 110.068 6.33762 109.771 6.12445C109.474 5.91127 109.087 5.80469 108.61 5.80469C107.907 5.80469 107.395 6.04379 107.075 6.52199C106.761 7.00018 106.604 7.71748 106.604 8.67388Z" fill="black"/>
<path d="M102.668 3.8602V5.83926H98.5936V13.5221H95.9323V3.8602H102.668Z" fill="black"/>
<path d="M93.7334 8.67388C93.7334 9.48048 93.6229 10.1949 93.4019 10.8171C93.1866 11.4394 92.8696 11.9665 92.4508 12.3986C92.0378 12.825 91.5375 13.1476 90.95 13.3666C90.3683 13.5855 89.711 13.695 88.978 13.695C88.2916 13.695 87.6605 13.5855 87.0846 13.3666C86.5145 13.1476 86.0172 12.825 85.5925 12.3986C85.1737 11.9665 84.8479 11.4394 84.6152 10.8171C84.3884 10.1949 84.2749 9.48048 84.2749 8.67388C84.2749 7.60225 84.4669 6.69483 84.8508 5.9516C85.2348 5.20838 85.7816 4.64376 86.4912 4.25774C87.2009 3.87173 88.0473 3.67872 89.0304 3.67872C89.9436 3.67872 90.7522 3.87173 91.4561 4.25774C92.1657 4.64376 92.7213 5.20838 93.1227 5.9516C93.5298 6.69483 93.7334 7.60225 93.7334 8.67388ZM86.9886 8.67388C86.9886 9.30764 87.0584 9.84057 87.198 10.2727C87.3376 10.7048 87.5558 11.0303 87.8524 11.2492C88.1491 11.4682 88.5359 11.5776 89.0129 11.5776C89.4841 11.5776 89.8651 11.4682 90.156 11.2492C90.4526 11.0303 90.6679 10.7048 90.8017 10.2727C90.9413 9.84057 91.0111 9.30764 91.0111 8.67388C91.0111 8.03436 90.9413 7.50431 90.8017 7.08372C90.6679 6.65738 90.4526 6.33762 90.156 6.12445C89.8593 5.91127 89.4725 5.80469 88.9955 5.80469C88.2916 5.80469 87.7797 6.04379 87.4598 6.52199C87.1457 7.00018 86.9886 7.71748 86.9886 8.67388Z" fill="black"/>
<path d="M81.4042 0.887306V11.2924H83.1057V17.2037H80.4968V13.5221H72.5042V17.2037H69.8953V11.2924H70.8812C71.2128 10.6356 71.5328 9.94139 71.8411 9.20969C72.1494 8.47799 72.4373 7.69156 72.7049 6.85039C72.9725 6.00922 73.2139 5.09603 73.4291 4.11083C73.6443 3.12562 73.8247 2.05112 73.9701 0.887306H81.4042ZM78.7081 3.11698H76.1166C76.0293 3.72769 75.9101 4.37873 75.7588 5.07011C75.6076 5.76148 75.4273 6.46725 75.2178 7.18743C75.0142 7.90185 74.7845 8.60762 74.5285 9.30476C74.2784 10.0019 74.0108 10.6645 73.7258 11.2924H78.7081V3.11698Z" fill="black"/>
<path d="M64.3633 8.67388C64.3633 9.48048 64.2527 10.1949 64.0317 10.8171C63.8165 11.4394 63.4994 11.9665 63.0806 12.3986C62.6676 12.825 62.1673 13.1476 61.5798 13.3666C60.9981 13.5855 60.3408 13.695 59.6078 13.695C58.9214 13.695 58.2903 13.5855 57.7144 13.3666C57.1443 13.1476 56.647 12.825 56.2223 12.3986C55.8035 11.9665 55.4778 11.4394 55.2451 10.8171C55.0182 10.1949 54.9048 9.48048 54.9048 8.67388C54.9048 7.60225 55.0967 6.69483 55.4807 5.9516C55.8646 5.20838 56.4114 4.64376 57.1211 4.25774C57.8307 3.87173 58.6771 3.67872 59.6602 3.67872C60.5735 3.67872 61.382 3.87173 62.0859 4.25774C62.7956 4.64376 63.3511 5.20838 63.7525 5.9516C64.1597 6.69483 64.3633 7.60225 64.3633 8.67388ZM57.6184 8.67388C57.6184 9.30764 57.6882 9.84057 57.8278 10.2727C57.9674 10.7048 58.1856 11.0303 58.4823 11.2492C58.7789 11.4682 59.1658 11.5776 59.6427 11.5776C60.1139 11.5776 60.4949 11.4682 60.7858 11.2492C61.0825 11.0303 61.2977 10.7048 61.4315 10.2727C61.5711 9.84057 61.6409 9.30764 61.6409 8.67388C61.6409 8.03436 61.5711 7.50431 61.4315 7.08372C61.2977 6.65738 61.0825 6.33762 60.7858 6.12445C60.4891 5.91127 60.1023 5.80469 59.6253 5.80469C58.9214 5.80469 58.4095 6.04379 58.0896 6.52199C57.7755 7.00018 57.6184 7.71748 57.6184 8.67388Z" fill="black"/>
<path d="M53.6745 5.83926H50.4809V13.5221H47.8196V5.83926H44.6174V3.8602H53.6745V5.83926Z" fill="black"/>
<path d="M40.368 13.695C39.4024 13.695 38.5793 13.5221 37.8987 13.1764C37.2181 12.825 36.7004 12.2834 36.3456 11.5517C35.9907 10.82 35.8133 9.88378 35.8133 8.74302C35.8133 7.56192 36.014 6.59976 36.4154 5.85654C36.8226 5.10755 37.3839 4.55734 38.0994 4.20589C38.8207 3.85444 39.6554 3.67872 40.6036 3.67872C41.2784 3.67872 41.8601 3.74498 42.3487 3.87749C42.8432 4.00424 43.2736 4.15692 43.6401 4.33552L42.8548 6.37507C42.436 6.20799 42.0462 6.07259 41.6856 5.96889C41.3249 5.85942 40.9643 5.80469 40.6036 5.80469C40.1383 5.80469 39.7514 5.91415 39.4431 6.13309C39.1348 6.34626 38.905 6.6689 38.7538 7.10101C38.6026 7.53312 38.5269 8.07469 38.5269 8.72573C38.5269 9.36525 38.6084 9.8953 38.7713 10.3159C38.9341 10.7365 39.1697 11.0505 39.478 11.2579C39.7863 11.4595 40.1615 11.5604 40.6036 11.5604C41.1562 11.5604 41.6478 11.4883 42.0782 11.3443C42.5087 11.1945 42.9275 10.9871 43.3347 10.7221V12.9777C42.9275 13.2312 42.5 13.4127 42.0521 13.5221C41.61 13.6374 41.0486 13.695 40.368 13.695Z" fill="black"/>
<path d="M34.2078 8.67388C34.2078 9.48048 34.0973 10.1949 33.8762 10.8171C33.661 11.4394 33.344 11.9665 32.9251 12.3986C32.5121 12.825 32.0119 13.1476 31.4244 13.3666C30.8426 13.5855 30.1853 13.695 29.4524 13.695C28.766 13.695 28.1348 13.5855 27.5589 13.3666C26.9889 13.1476 26.4915 12.825 26.0669 12.3986C25.648 11.9665 25.3223 11.4394 25.0896 10.8171C24.8627 10.1949 24.7493 9.48048 24.7493 8.67388C24.7493 7.60225 24.9413 6.69483 25.3252 5.9516C25.7091 5.20838 26.2559 4.64376 26.9656 4.25774C27.6753 3.87173 28.5217 3.67872 29.5047 3.67872C30.418 3.67872 31.2266 3.87173 31.9304 4.25774C32.6401 4.64376 33.1956 5.20838 33.597 5.9516C34.0042 6.69483 34.2078 7.60225 34.2078 8.67388ZM27.463 8.67388C27.463 9.30764 27.5328 9.84057 27.6724 10.2727C27.812 10.7048 28.0301 11.0303 28.3268 11.2492C28.6235 11.4682 29.0103 11.5776 29.4873 11.5776C29.9585 11.5776 30.3395 11.4682 30.6303 11.2492C30.927 11.0303 31.1422 10.7048 31.276 10.2727C31.4156 9.84057 31.4854 9.30764 31.4854 8.67388C31.4854 8.03436 31.4156 7.50431 31.276 7.08372C31.1422 6.65738 30.927 6.33762 30.6303 6.12445C30.3337 5.91127 29.9468 5.80469 29.4698 5.80469C28.766 5.80469 28.2541 6.04379 27.9341 6.52199C27.62 7.00018 27.463 7.71748 27.463 8.67388Z" fill="black"/>
<path d="M19.4616 3.67872C20.5611 3.67872 21.4482 4.10218 22.1229 4.94911C22.8035 5.79605 23.1438 7.03763 23.1438 8.67388C23.1438 9.76855 22.9838 10.6904 22.6639 11.4394C22.344 12.1826 21.9019 12.7443 21.3376 13.1246C20.7734 13.5048 20.1248 13.695 19.3918 13.695C18.9207 13.695 18.5164 13.6374 18.179 13.5221C17.8416 13.4011 17.5537 13.2485 17.3152 13.0641C17.0767 12.874 16.8702 12.6723 16.6956 12.4591H16.556C16.6026 12.6896 16.6375 12.9258 16.6607 13.1678C16.684 13.4098 16.6956 13.646 16.6956 13.8765V17.7741H14.0344V3.8602H16.1983L16.5735 5.11332H16.6956C16.8702 4.85405 17.0825 4.61495 17.3326 4.39602C17.5827 4.17708 17.8823 4.00424 18.2313 3.87749C18.5862 3.74498 18.9963 3.67872 19.4616 3.67872ZM18.6065 5.7874C18.1412 5.7874 17.7718 5.88247 17.4984 6.07259C17.225 6.26272 17.0243 6.54791 16.8963 6.92817C16.7742 7.30842 16.7073 7.7895 16.6956 8.3714V8.6566C16.6956 9.27883 16.7538 9.806 16.8702 10.2381C16.9923 10.6702 17.193 10.9986 17.4722 11.2233C17.7572 11.448 18.147 11.5604 18.6414 11.5604C19.0486 11.5604 19.3831 11.448 19.6449 11.2233C19.9066 10.9986 20.1015 10.6702 20.2295 10.2381C20.3633 9.80024 20.4302 9.26731 20.4302 8.63931C20.4302 7.69444 20.2818 6.9829 19.9852 6.5047C19.6885 6.0265 19.229 5.7874 18.6065 5.7874Z" fill="black"/>
<path d="M0.928589 13.5221V0.887306H11.024V13.5221H8.32785V3.11698H3.63351V13.5221H0.928589Z" fill="black"/>
</svg>
